<svg width="145" height="145" viewBox="0 0 145 145" fill="none" xmlns="http://www.w3.org/2000/svg">
<path fill-rule="evenodd" clip-rule="evenodd" d="M145 72.5C145 112.541 112.541 145 72.5 145C32.4594 145 0 112.541 0 72.5C0 32.4594 32.4594 0 72.5 0C112.541 0 145 32.4594 145 72.5ZM141 72.5C141 110.332 110.332 141 72.5 141C34.6685 141 4 110.332 4 72.5C4 34.6685 34.6685 4 72.5 4C110.332 4 141 34.6685 141 72.5ZM117.382 34.314C120.037 34.264 122.626 34.264 125.282 34.314L125.844 34.409C125.882 34.5432 125.915 34.677 125.948 34.8109C125.966 34.8825 125.984 34.9542 126.002 35.026L125.284 35.726L123.129 36.431C119.682 37.041 115.928 37.601 113.074 37.841C112.984 37.8486 112.891 37.8562 112.797 37.864L112.789 37.8646L112.786 37.8648C110.634 38.0414 107.333 38.3123 104.456 40.661C103.935 41.0862 103.454 41.5581 103.019 42.071C101.575 45.6902 100.609 49.4827 100.147 53.352C99.9733 54.8515 99.8994 56.2171 99.8282 57.5334V57.5336C99.6887 60.1123 99.5594 62.5018 98.71 65.338C97.5506 68.8667 95.855 72.196 93.683 75.209C91.4586 78.3851 88.7993 81.2332 85.783 83.67L69.264 87.9L49.154 102H47V100.59C50.8974 95.6389 54.4946 90.4586 57.772 85.077C60.9589 79.8443 63.8365 74.4293 66.39 68.86L66.597 66.515L57.646 65.364C52.679 62.367 47.767 59.574 42.689 56.874C35.485 53.036 28.322 49.568 21.842 46.848C20.559 46.31 19.295 45.792 18.006 45.279C22.1721 41.8284 27.5381 40.1738 32.924 40.679C41.0835 41.4575 49.1273 43.1655 56.899 45.77C61.663 47.458 67.608 49.555 75.008 49.826C76.215 49.87 77.4 49.87 78.6 49.826C79.1273 49.4082 79.6087 48.9356 80.036 48.416C81.1366 46.9654 81.8754 45.2733 82.191 43.48C83.005 38.95 84.611 35.406 85.782 34.314C88.036 32.213 91.55 31.656 95.836 32.199L103.736 35.019C108.306 34.633 112.797 34.401 117.382 34.314ZM20.2343 52.645C20.2343 52.8926 20.2998 53.1358 20.424 53.35C20.4461 53.3697 20.4698 53.3874 20.495 53.403L21.143 54.053C22.098 54.526 23.052 54.994 24.016 55.463C26.4437 56.6443 28.8167 57.6534 31.1225 58.6339L31.1225 58.6339C34.9419 60.2581 38.577 61.8039 41.971 63.924C43.5783 64.9292 45.0151 65.9132 46.3977 66.8601C49.9035 69.2612 53.0614 71.424 57.771 73.09C58.973 73.516 60.175 73.886 61.404 74.21C61.6687 73.5586 62.0661 72.9694 62.571 72.48C62.8812 72.2247 63.1683 71.9426 63.429 71.637C63.8519 71.1222 64.0908 70.481 64.108 69.815C64.0705 69.2344 63.8302 68.6854 63.429 68.264C58.5927 67.2025 53.9953 65.2532 49.87 62.515C49.1544 62.0312 48.3199 61.3895 47.4033 60.6846L47.4032 60.6846L47.4031 60.6845L47.4031 60.6845C45.7808 59.437 43.9015 57.9919 41.97 56.875C40.4109 55.9737 38.9717 55.405 37.4958 54.8218L37.4958 54.8218C36.3958 54.3871 35.2755 53.9444 34.07 53.35C33.6858 53.1606 33.3118 52.9727 32.9458 52.7888L32.943 52.7874L32.9425 52.7871C29.8136 51.2152 27.2756 49.9402 24.015 50.53C22.7391 50.767 21.5203 51.2456 20.424 51.94C20.2998 52.1542 20.2343 52.3974 20.2343 52.645ZM55.1045 129.289C55.1045 128.719 54.9763 128.264 54.7201 127.925C54.4638 127.578 54.0835 127.405 53.5793 127.405C53.4139 127.405 53.261 127.413 53.1205 127.429C52.9799 127.438 52.8642 127.45 52.7733 127.467V130.802C52.889 130.877 53.0378 130.939 53.2197 130.988C53.4098 131.038 53.5999 131.063 53.7901 131.063C54.6663 131.063 55.1045 130.472 55.1045 129.289ZM56.9893 129.24C56.9893 129.744 56.9273 130.203 56.8033 130.616C56.6793 131.03 56.4974 131.385 56.2577 131.683C56.0179 131.98 55.7203 132.212 55.3649 132.377C55.0094 132.542 54.6002 132.625 54.1373 132.625C53.881 132.625 53.6413 132.6 53.4181 132.551C53.1949 132.501 52.9799 132.431 52.7733 132.34V134.795H50.9257V126.202C51.091 126.152 51.2811 126.107 51.4961 126.065C51.711 126.016 51.9342 125.974 52.1657 125.941C52.4054 125.908 52.6451 125.884 52.8849 125.867C53.1329 125.842 53.3685 125.83 53.5917 125.83C54.129 125.83 54.6085 125.912 55.0301 126.078C55.4517 126.235 55.8071 126.462 56.0965 126.76C56.3858 127.049 56.6049 127.405 56.7537 127.826C56.9107 128.248 56.9893 128.719 56.9893 129.24ZM62.3401 127.615C62.1747 127.574 61.9805 127.533 61.7573 127.491C61.5341 127.442 61.2943 127.417 61.0381 127.417C60.9223 127.417 60.7818 127.429 60.6165 127.454C60.4594 127.471 60.3395 127.491 60.2569 127.516V132.501H58.4093V126.326C58.7399 126.21 59.1285 126.103 59.5749 126.003C60.0295 125.896 60.5338 125.842 61.0877 125.842C61.1869 125.842 61.3067 125.85 61.4473 125.867C61.5878 125.875 61.7283 125.892 61.8689 125.917C62.0094 125.933 62.1499 125.958 62.2905 125.991C62.431 126.016 62.5509 126.049 62.6501 126.09L62.3401 127.615ZM69.6202 129.227C69.6202 129.74 69.5458 130.211 69.397 130.641C69.2482 131.063 69.0333 131.426 68.7522 131.732C68.4712 132.03 68.1322 132.261 67.7354 132.427C67.3469 132.592 66.9088 132.675 66.421 132.675C65.9416 132.675 65.5034 132.592 65.1066 132.427C64.7181 132.261 64.3833 132.03 64.1022 131.732C63.8212 131.426 63.6021 131.063 63.445 130.641C63.288 130.211 63.2094 129.74 63.2094 129.227C63.2094 128.715 63.288 128.248 63.445 127.826C63.6104 127.405 63.8336 127.045 64.1146 126.747C64.404 126.45 64.7429 126.218 65.1314 126.053C65.5282 125.888 65.9581 125.805 66.421 125.805C66.8922 125.805 67.3221 125.888 67.7106 126.053C68.1074 126.218 68.4464 126.45 68.7274 126.747C69.0085 127.045 69.2276 127.405 69.3846 127.826C69.5417 128.248 69.6202 128.715 69.6202 129.227ZM67.7354 129.227C67.7354 128.657 67.6197 128.211 67.3882 127.888C67.165 127.558 66.8426 127.392 66.421 127.392C65.9994 127.392 65.6729 127.558 65.4414 127.888C65.21 128.211 65.0942 128.657 65.0942 129.227C65.0942 129.798 65.21 130.252 65.4414 130.591C65.6729 130.922 65.9994 131.087 66.421 131.087C66.8426 131.087 67.165 130.922 67.3882 130.591C67.6197 130.252 67.7354 129.798 67.7354 129.227ZM70.4439 134.795C70.3281 134.795 70.1587 134.783 69.9355 134.758C69.704 134.733 69.4891 134.688 69.2907 134.621L69.5387 133.121C69.6627 133.162 69.7784 133.191 69.8859 133.208C69.9851 133.224 70.1132 133.233 70.2703 133.233C70.5596 133.233 70.7621 133.146 70.8779 132.972C70.9936 132.799 71.0515 132.546 71.0515 132.216V125.979H72.8991V132.265C72.8991 133.125 72.6883 133.762 72.2667 134.175C71.8451 134.588 71.2375 134.795 70.4439 134.795ZM73.0727 124.094C73.0727 124.433 72.9611 124.701 72.7379 124.9C72.5229 125.09 72.2667 125.185 71.9691 125.185C71.6715 125.185 71.4111 125.09 71.1879 124.9C70.9729 124.701 70.8655 124.433 70.8655 124.094C70.8655 123.755 70.9729 123.49 71.1879 123.3C71.4111 123.102 71.6715 123.003 71.9691 123.003C72.2667 123.003 72.5229 123.102 72.7379 123.3C72.9611 123.49 73.0727 123.755 73.0727 124.094ZM74.3258 129.289C74.3258 128.711 74.4126 128.206 74.5862 127.777C74.7681 127.338 75.0037 126.975 75.293 126.685C75.5824 126.396 75.913 126.177 76.285 126.028C76.6653 125.879 77.0538 125.805 77.4506 125.805C78.3765 125.805 79.1081 126.09 79.6454 126.661C80.1828 127.223 80.4514 128.054 80.4514 129.153C80.4514 129.26 80.4473 129.38 80.439 129.513C80.4308 129.637 80.4225 129.748 80.4142 129.847H76.223C76.2644 130.228 76.4421 130.529 76.7562 130.753C77.0704 130.976 77.492 131.087 78.021 131.087C78.36 131.087 78.6906 131.058 79.013 131.001C79.3437 130.934 79.6124 130.856 79.819 130.765L80.067 132.265C79.9678 132.315 79.8356 132.365 79.6702 132.414C79.5049 132.464 79.3189 132.505 79.1122 132.538C78.9138 132.58 78.6989 132.613 78.4674 132.637C78.236 132.662 78.0045 132.675 77.773 132.675C77.1861 132.675 76.6736 132.588 76.2354 132.414C75.8056 132.241 75.446 132.005 75.1566 131.707C74.8756 131.402 74.6648 131.042 74.5242 130.629C74.392 130.215 74.3258 129.769 74.3258 129.289ZM78.6658 128.583C78.6576 128.426 78.6286 128.273 78.579 128.124C78.5377 127.975 78.4674 127.843 78.3682 127.727C78.2773 127.611 78.1574 127.516 78.0086 127.442C77.8681 127.367 77.6904 127.33 77.4754 127.33C77.2688 127.33 77.091 127.367 76.9422 127.442C76.7934 127.508 76.6694 127.599 76.5702 127.715C76.471 127.83 76.3925 127.967 76.3346 128.124C76.285 128.273 76.2478 128.426 76.223 128.583H78.6658ZM81.5672 129.24C81.5672 128.769 81.6416 128.326 81.7904 127.913C81.9475 127.491 82.1707 127.128 82.46 126.822C82.7494 126.508 83.1007 126.26 83.514 126.078C83.9274 125.896 84.3986 125.805 84.9276 125.805C85.2748 125.805 85.5931 125.838 85.8824 125.904C86.1718 125.962 86.4528 126.049 86.7256 126.165L86.3412 127.64C86.1676 127.574 85.9775 127.516 85.7708 127.467C85.5642 127.417 85.3327 127.392 85.0764 127.392C84.5308 127.392 84.1216 127.562 83.8488 127.901C83.5843 128.24 83.452 128.686 83.452 129.24C83.452 129.827 83.576 130.281 83.824 130.604C84.0803 130.926 84.5226 131.087 85.1508 131.087C85.374 131.087 85.6138 131.067 85.87 131.025C86.1263 130.984 86.3619 130.918 86.5768 130.827L86.8372 132.34C86.6223 132.431 86.3536 132.509 86.0312 132.575C85.7088 132.642 85.3534 132.675 84.9648 132.675C84.3696 132.675 83.8571 132.588 83.4272 132.414C82.9974 132.232 82.6419 131.988 82.3608 131.683C82.088 131.377 81.8855 131.017 81.7532 130.604C81.6292 130.182 81.5672 129.728 81.5672 129.24ZM88.0152 124.354L89.8628 124.057V125.979H92.0824V127.516H89.8628V129.81C89.8628 130.199 89.929 130.509 90.0612 130.74C90.2018 130.972 90.4787 131.087 90.892 131.087C91.0904 131.087 91.293 131.071 91.4996 131.038C91.7146 130.996 91.9088 130.943 92.0824 130.877L92.3428 132.315C92.1196 132.406 91.8716 132.484 91.5988 132.551C91.326 132.617 90.9912 132.65 90.5944 132.65C90.0902 132.65 89.6727 132.584 89.342 132.451C89.0114 132.311 88.7468 132.121 88.5484 131.881C88.35 131.633 88.2095 131.335 88.1268 130.988C88.0524 130.641 88.0152 130.257 88.0152 129.835V124.354ZM33.7801 119.297C34.2802 119.332 34.7804 119.35 35.2806 119.35C36.6583 119.35 37.6937 119.109 38.3869 118.626C39.0889 118.143 39.4399 117.424 39.4399 116.467C39.4399 115.994 39.3346 115.568 39.124 115.191C38.9134 114.813 38.5186 114.515 37.9394 114.296C38.6414 113.874 38.9924 113.3 38.9924 112.571C38.9924 112.089 38.8915 111.685 38.6897 111.36C38.4966 111.027 38.2246 110.759 37.8736 110.557C37.5226 110.356 37.1014 110.215 36.61 110.136C36.1274 110.048 35.5965 110.005 35.0173 110.005C34.5874 110.005 34.1223 110.027 33.6221 110.07C33.1219 110.105 32.6613 110.163 32.2401 110.242V119.087C32.7753 119.201 33.2887 119.271 33.7801 119.297ZM34.2407 117.613V115.256H35.5307C36.1186 115.256 36.5705 115.349 36.8864 115.533C37.2023 115.708 37.3603 116.007 37.3603 116.428C37.3603 116.902 37.1716 117.226 36.7943 117.402C36.417 117.577 35.9212 117.665 35.3069 117.665C35.0963 117.665 34.9033 117.661 34.7278 117.652C34.5523 117.643 34.3899 117.63 34.2407 117.613ZM35.2411 113.69H34.2407V111.703C34.3987 111.685 34.5786 111.676 34.7804 111.676C34.9822 111.667 35.1709 111.663 35.3464 111.663C35.8904 111.663 36.3029 111.738 36.5837 111.887C36.8645 112.036 37.0049 112.295 37.0049 112.663C37.0049 113.023 36.8689 113.286 36.5968 113.453C36.3248 113.611 35.8729 113.69 35.2411 113.69ZM42.9658 115.875C42.8605 115.515 42.8079 115.112 42.8079 114.664C42.8079 114.225 42.8605 113.826 42.9658 113.466C43.0799 113.098 43.2379 112.786 43.4397 112.532C43.6503 112.269 43.9048 112.067 44.2031 111.926C44.5015 111.777 44.8437 111.703 45.2298 111.703C45.6071 111.703 45.945 111.773 46.2433 111.913C46.5504 112.054 46.8049 112.255 47.0067 112.519C47.2173 112.773 47.3753 113.085 47.4806 113.453C47.5947 113.813 47.6517 114.217 47.6517 114.664C47.6517 115.112 47.5947 115.515 47.4806 115.875C47.3753 116.235 47.2173 116.546 47.0067 116.81C46.8049 117.064 46.5504 117.262 46.2433 117.402C45.945 117.542 45.6071 117.613 45.2298 117.613C44.8437 117.613 44.5015 117.542 44.2031 117.402C43.9048 117.262 43.6503 117.064 43.4397 116.81C43.2379 116.546 43.0799 116.235 42.9658 115.875ZM49.4155 116.731C49.6524 116.134 49.7709 115.445 49.7709 114.664C49.7709 113.883 49.6524 113.199 49.4155 112.611C49.1785 112.014 48.8539 111.514 48.4414 111.11C48.029 110.707 47.5464 110.404 46.9936 110.202C46.4407 110 45.8528 109.899 45.2298 109.899C44.6243 109.899 44.0452 110 43.4923 110.202C42.9483 110.404 42.4657 110.707 42.0445 111.11C41.632 111.514 41.303 112.014 41.0573 112.611C40.8116 113.199 40.6887 113.883 40.6887 114.664C40.6887 115.445 40.8072 116.134 41.0441 116.731C41.281 117.319 41.6057 117.814 42.0181 118.218C42.4306 118.613 42.9132 118.911 43.466 119.113C44.0188 119.315 44.6068 119.416 45.2298 119.416C45.8704 119.416 46.4671 119.315 47.0199 119.113C47.5815 118.911 48.0641 118.613 48.4678 118.218C48.8714 117.814 49.1873 117.319 49.4155 116.731ZM57.353 110.729C56.6246 110.246 55.5804 110.005 54.2203 110.005C53.843 110.005 53.4042 110.022 52.904 110.057C52.4039 110.092 51.93 110.154 51.4825 110.242V119.231H53.5358V116.178H54.1808C55.5497 116.178 56.6027 115.936 57.3398 115.454C58.0769 114.962 58.4455 114.168 58.4455 113.071C58.4455 111.983 58.0813 111.202 57.353 110.729ZM53.9044 111.768C54.0536 111.76 54.2027 111.755 54.3519 111.755C54.6503 111.755 54.9223 111.777 55.168 111.821C55.4137 111.856 55.6199 111.926 55.7866 112.032C55.9621 112.128 56.0938 112.26 56.1815 112.426C56.278 112.593 56.3263 112.804 56.3263 113.058C56.3263 113.585 56.1464 113.945 55.7866 114.138C55.4269 114.331 54.8916 114.427 54.1808 114.427H53.5358V111.795C53.6411 111.786 53.764 111.777 53.9044 111.768ZM61.8355 115.875C61.7302 115.515 61.6776 115.112 61.6776 114.664C61.6776 114.225 61.7302 113.826 61.8355 113.466C61.9496 113.098 62.1075 112.786 62.3094 112.532C62.52 112.269 62.7744 112.067 63.0728 111.926C63.3711 111.777 63.7134 111.703 64.0995 111.703C64.4768 111.703 64.8146 111.773 65.113 111.913C65.4201 112.054 65.6746 112.255 65.8764 112.519C66.087 112.773 66.245 113.085 66.3503 113.453C66.4643 113.813 66.5214 114.217 66.5214 114.664C66.5214 115.112 66.4643 115.515 66.3503 115.875C66.245 116.235 66.087 116.546 65.8764 116.81C65.6746 117.064 65.4201 117.262 65.113 117.402C64.8146 117.542 64.4768 117.613 64.0995 117.613C63.7134 117.613 63.3711 117.542 63.0728 117.402C62.7744 117.262 62.52 117.064 62.3094 116.81C62.1075 116.546 61.9496 116.235 61.8355 115.875ZM68.2851 116.731C68.5221 116.134 68.6405 115.445 68.6405 114.664C68.6405 113.883 68.5221 113.199 68.2851 112.611C68.0482 112.014 67.7235 111.514 67.3111 111.11C66.8987 110.707 66.4161 110.404 65.8633 110.202C65.3104 110 64.7225 109.899 64.0995 109.899C63.494 109.899 62.9148 110 62.362 110.202C61.818 110.404 61.3353 110.707 60.9141 111.11C60.5017 111.514 60.1727 112.014 59.927 112.611C59.6813 113.199 59.5584 113.883 59.5584 114.664C59.5584 115.445 59.6769 116.134 59.9138 116.731C60.1507 117.319 60.4754 117.814 60.8878 118.218C61.3002 118.613 61.7829 118.911 62.3357 119.113C62.8885 119.315 63.4764 119.416 64.0995 119.416C64.74 119.416 65.3367 119.315 65.8896 119.113C66.4512 118.911 66.9338 118.613 67.3374 118.218C67.7411 117.814 68.057 117.319 68.2851 116.731ZM72.3134 113.348V111.847H76.4069V110.11H70.3522V119.021C70.826 119.135 71.2955 119.214 71.7606 119.258C72.2344 119.302 72.6556 119.324 73.0242 119.324C74.3843 119.324 75.4285 119.078 76.1568 118.587C76.8939 118.086 77.2625 117.332 77.2625 116.323C77.2625 115.779 77.166 115.318 76.9729 114.941C76.7799 114.563 76.4991 114.256 76.1305 114.019C75.7707 113.782 75.3232 113.611 74.7879 113.506C74.2614 113.401 73.6603 113.348 72.9847 113.348H72.3134ZM73.906 117.52C73.6603 117.555 73.4015 117.573 73.1295 117.573H72.6556C72.524 117.564 72.4099 117.555 72.3134 117.547V115.046H72.9189C73.2699 115.046 73.5858 115.063 73.8666 115.098C74.1474 115.134 74.3843 115.199 74.5773 115.296C74.7704 115.392 74.9196 115.524 75.0249 115.691C75.1302 115.858 75.1828 116.073 75.1828 116.336C75.1828 116.59 75.1258 116.796 75.0117 116.954C74.8976 117.112 74.7441 117.24 74.551 117.336C74.3667 117.424 74.1517 117.485 73.906 117.52ZM84.8097 118.56C85.5644 118.034 85.9417 117.262 85.9417 116.244C85.9417 115.182 85.5819 114.396 84.8624 113.888C84.1428 113.379 83.0416 113.124 81.5586 113.124H81.269C81.1813 113.124 81.0804 113.128 80.9663 113.137V110.11H78.9129V119.021C79.3868 119.135 79.865 119.218 80.3476 119.271C80.8391 119.324 81.2734 119.35 81.6507 119.35C83.0021 119.35 84.0551 119.087 84.8097 118.56ZM81.1901 114.862H81.3743C81.7517 114.862 82.0895 114.883 82.3878 114.927C82.695 114.971 82.9538 115.046 83.1644 115.151C83.3838 115.256 83.5505 115.397 83.6646 115.572C83.7787 115.748 83.8357 115.972 83.8357 116.244C83.8357 116.507 83.7787 116.726 83.6646 116.902C83.5505 117.077 83.397 117.218 83.2039 117.323C83.0109 117.428 82.7871 117.503 82.5326 117.547C82.2782 117.591 82.0149 117.613 81.7429 117.613H81.2953C81.1725 117.613 81.0628 117.608 80.9663 117.599V114.875C81.0365 114.866 81.1111 114.862 81.1901 114.862ZM87.5894 110.11V119.231H94.0522V117.507H89.6427V115.309H93.2888V113.624H89.6427V111.834H93.7494V110.11H87.5894ZM88.4581 108.807C88.6599 108.982 88.8969 109.07 89.1689 109.07C89.4409 109.07 89.6778 108.982 89.8797 108.807C90.0815 108.623 90.1824 108.377 90.1824 108.07C90.1824 107.763 90.0815 107.521 89.8797 107.346C89.6778 107.161 89.4409 107.069 89.1689 107.069C88.8969 107.069 88.6599 107.161 88.4581 107.346C88.2563 107.521 88.1554 107.763 88.1554 108.07C88.1554 108.377 88.2563 108.623 88.4581 108.807ZM91.3934 108.807C91.5952 108.982 91.8321 109.07 92.1041 109.07C92.3762 109.07 92.6131 108.982 92.8149 108.807C93.0167 108.623 93.1176 108.377 93.1176 108.07C93.1176 107.763 93.0167 107.521 92.8149 107.346C92.6131 107.161 92.3762 107.069 92.1041 107.069C91.8321 107.069 91.5952 107.161 91.3934 107.346C91.1915 107.521 91.0906 107.763 91.0906 108.07C91.0906 108.377 91.1915 108.623 91.3934 108.807ZM97.1117 119.297C97.6119 119.332 98.1121 119.35 98.6123 119.35C99.9899 119.35 101.025 119.109 101.719 118.626C102.421 118.143 102.772 117.424 102.772 116.467C102.772 115.994 102.666 115.568 102.456 115.191C102.245 114.813 101.85 114.515 101.271 114.296C101.973 113.874 102.324 113.3 102.324 112.571C102.324 112.089 102.223 111.685 102.021 111.36C101.828 111.027 101.556 110.759 101.205 110.557C100.854 110.356 100.433 110.215 99.9417 110.136C99.4591 110.048 98.9282 110.005 98.349 110.005C97.919 110.005 97.454 110.027 96.9538 110.07C96.4536 110.105 95.9929 110.163 95.5717 110.242V119.087C96.107 119.201 96.6203 119.271 97.1117 119.297ZM97.5724 117.613V115.256H98.8624C99.4503 115.256 99.9022 115.349 100.218 115.533C100.534 115.708 100.692 116.007 100.692 116.428C100.692 116.902 100.503 117.226 100.126 117.402C99.7486 117.577 99.2528 117.665 98.6386 117.665C98.428 117.665 98.2349 117.661 98.0594 117.652C97.8839 117.643 97.7216 117.63 97.5724 117.613ZM98.5728 113.69H97.5724V111.703C97.7304 111.685 97.9103 111.676 98.1121 111.676C98.3139 111.667 98.5026 111.663 98.6781 111.663C99.2221 111.663 99.6346 111.738 99.9154 111.887C100.196 112.036 100.337 112.295 100.337 112.663C100.337 113.023 100.201 113.286 99.9285 113.453C99.6565 113.611 99.2046 113.69 98.5728 113.69ZM110.065 118.257C110.188 118.591 110.298 118.916 110.394 119.231H112.592C112.25 118.249 111.925 117.34 111.618 116.507C111.311 115.673 111.008 114.888 110.71 114.151C110.42 113.414 110.131 112.716 109.841 112.058C109.552 111.391 109.258 110.742 108.959 110.11H106.998C106.691 110.742 106.393 111.391 106.103 112.058C105.822 112.716 105.533 113.414 105.234 114.151C104.945 114.888 104.647 115.673 104.339 116.507C104.032 117.34 103.708 118.249 103.365 119.231H105.498C105.594 118.916 105.7 118.591 105.814 118.257C105.936 117.924 106.055 117.591 106.169 117.257H109.723L110.065 118.257ZM107.735 112.716C107.823 112.488 107.889 112.308 107.933 112.176C107.985 112.308 108.056 112.488 108.143 112.716C108.231 112.944 108.332 113.207 108.446 113.506C108.569 113.804 108.696 114.133 108.828 114.493C108.959 114.853 109.095 115.23 109.236 115.625H106.643C106.783 115.23 106.919 114.853 107.051 114.493C107.191 114.133 107.319 113.804 107.433 113.506C107.547 113.207 107.648 112.944 107.735 112.716Z" fill="black"/>
</svg>
