<svg width="233" height="113" viewBox="0 0 233 113" fill="none" xmlns="http://www.w3.org/2000/svg">
<path fill-rule="evenodd" clip-rule="evenodd" d="M78.6736 1.68477C76.7316 1.64777 74.8366 1.64777 72.8946 1.68477C69.5406 1.74777 66.2566 1.91677 62.9126 2.19877L57.1336 0.143771C53.9986 -0.256229 51.4266 0.153771 49.7786 1.68477C48.9226 2.48477 47.7476 5.06277 47.1516 8.36277C46.9213 9.6714 46.3809 10.9058 45.5756 11.9628C45.2628 12.3415 44.9105 12.6858 44.5246 12.9898C43.6466 13.0218 42.7796 13.0218 41.8976 12.9898C37.3535 12.7137 32.8822 11.7163 28.6516 10.0348C22.9656 8.13711 17.082 6.89277 11.1146 6.32577C7.17632 5.95554 3.25164 7.15962 0.198593 9.67477C1.14159 10.0488 2.06659 10.4258 3.00459 10.8178C7.74459 12.7998 12.9846 15.3268 18.2536 18.1178C21.9676 20.0888 25.5606 22.1178 29.1936 24.3038L35.7406 25.1418L35.5986 26.8558C33.7319 30.9141 31.6283 34.8593 29.2986 38.6708C26.9006 42.5918 24.2692 46.3653 21.4186 49.9708V50.9988H22.9946L37.6986 40.7248L49.7786 37.6428C51.9841 35.8689 53.9294 33.7939 55.5576 31.4788C57.1463 29.2849 58.3869 26.859 59.2356 24.2868C59.8572 22.2207 59.9516 20.4798 60.0535 18.6011V18.601C60.1055 17.6417 60.1595 16.6465 60.2866 15.5538C60.6243 12.7341 61.3303 9.97086 62.3866 7.33477C62.7048 6.96103 63.0566 6.61725 63.4376 6.30777C65.2681 4.97504 67.4733 4.2557 69.7376 4.25277C71.8256 4.07777 74.5706 3.66777 77.0926 3.22577L78.6686 2.71177L79.1986 2.19877L79.0836 1.74877L78.6736 1.68477ZM1.97359 15.5548C1.88276 15.3989 1.83491 15.2217 1.83491 15.0413C1.83491 14.8609 1.88276 14.6837 1.97359 14.5278C2.77532 14.0212 3.66619 13.672 4.59859 13.4988C6.98416 13.0691 8.84088 13.9984 11.1299 15.1441L11.13 15.1441C11.3981 15.2783 11.6721 15.4155 11.9536 15.5538C12.8346 15.9864 13.6533 16.3087 14.4572 16.6251L14.4572 16.6251C15.5375 17.0504 16.591 17.4651 17.7326 18.1228C19.1486 18.938 20.5265 19.9933 21.7151 20.9036L21.7151 20.9036C22.3825 21.4147 22.9902 21.8801 23.5116 22.2318C26.531 24.2278 29.8935 25.648 33.4296 26.4208C33.7244 26.7266 33.9015 27.1269 33.9296 27.5508C33.916 28.0366 33.74 28.5038 33.4296 28.8778C33.2391 29.1005 33.0293 29.306 32.8026 29.4918C32.4331 29.8479 32.1422 30.2775 31.9486 30.7528C31.0486 30.5168 30.1706 30.2468 29.2906 29.9368C25.8472 28.723 23.536 27.1469 20.9696 25.3968C19.9585 24.7073 18.9078 23.9908 17.7326 23.2588C15.2485 21.7116 12.5884 20.5856 9.79323 19.4024L9.79315 19.4023C8.10777 18.6889 6.37327 17.9547 4.59859 17.0948L4.07444 16.8388L4.07255 16.8379C3.5479 16.5817 3.02325 16.3256 2.49859 16.0678L2.02359 15.5988C2.00487 15.5855 1.98746 15.5704 1.97159 15.5538L1.97359 15.5548ZM157.749 101.161C157.749 100.011 157.491 99.0941 156.974 98.4108C156.457 97.7108 155.691 97.3608 154.674 97.3608C154.341 97.3608 154.032 97.3774 153.749 97.4108C153.466 97.4274 153.232 97.4524 153.049 97.4858V104.211C153.282 104.361 153.582 104.486 153.949 104.586C154.332 104.686 154.716 104.736 155.099 104.736C156.866 104.736 157.749 103.544 157.749 101.161ZM161.549 101.061C161.549 102.077 161.424 103.002 161.174 103.836C160.924 104.669 160.557 105.386 160.074 105.986C159.591 106.586 158.991 107.052 158.274 107.386C157.557 107.719 156.732 107.886 155.799 107.886C155.282 107.886 154.799 107.836 154.349 107.736C153.899 107.636 153.466 107.494 153.049 107.311V112.261H149.324V94.9358C149.657 94.8358 150.041 94.7441 150.474 94.6608C150.907 94.5608 151.357 94.4774 151.824 94.4108C152.307 94.3441 152.791 94.2941 153.274 94.2608C153.774 94.2108 154.249 94.1858 154.699 94.1858C155.782 94.1858 156.749 94.3524 157.599 94.6858C158.449 95.0024 159.166 95.4608 159.749 96.0608C160.332 96.6441 160.774 97.3608 161.074 98.2108C161.391 99.0608 161.549 100.011 161.549 101.061ZM172.337 97.7858C172.003 97.7024 171.612 97.6191 171.162 97.5358C170.712 97.4358 170.228 97.3858 169.712 97.3858C169.478 97.3858 169.195 97.4108 168.862 97.4608C168.545 97.4941 168.303 97.5358 168.137 97.5858V107.636H164.412V95.1858C165.078 94.9524 165.862 94.7358 166.762 94.5358C167.678 94.3191 168.695 94.2108 169.812 94.2108C170.012 94.2108 170.253 94.2274 170.537 94.2608C170.82 94.2774 171.103 94.3108 171.387 94.3608C171.67 94.3941 171.953 94.4441 172.237 94.5108C172.52 94.5608 172.762 94.6274 172.962 94.7108L172.337 97.7858ZM187.014 101.036C187.014 102.069 186.864 103.019 186.564 103.886C186.264 104.736 185.831 105.469 185.264 106.086C184.698 106.686 184.014 107.152 183.214 107.486C182.431 107.819 181.548 107.986 180.564 107.986C179.598 107.986 178.714 107.819 177.914 107.486C177.131 107.152 176.456 106.686 175.889 106.086C175.323 105.469 174.881 104.736 174.564 103.886C174.248 103.019 174.089 102.069 174.089 101.036C174.089 100.002 174.248 99.0608 174.564 98.2108C174.898 97.3608 175.348 96.6358 175.914 96.0358C176.498 95.4358 177.181 94.9691 177.964 94.6358C178.764 94.3024 179.631 94.1358 180.564 94.1358C181.514 94.1358 182.381 94.3024 183.164 94.6358C183.964 94.9691 184.648 95.4358 185.214 96.0358C185.781 96.6358 186.223 97.3608 186.539 98.2108C186.856 99.0608 187.014 100.002 187.014 101.036ZM183.214 101.036C183.214 99.8858 182.981 98.9858 182.514 98.3358C182.064 97.6691 181.414 97.3358 180.564 97.3358C179.714 97.3358 179.056 97.6691 178.589 98.3358C178.123 98.9858 177.889 99.8858 177.889 101.036C177.889 102.186 178.123 103.102 178.589 103.786C179.056 104.452 179.714 104.786 180.564 104.786C181.414 104.786 182.064 104.452 182.514 103.786C182.981 103.102 183.214 102.186 183.214 101.036ZM188.675 112.261C188.442 112.261 188.1 112.236 187.65 112.186C187.183 112.136 186.75 112.044 186.35 111.911L186.85 108.886C187.1 108.969 187.333 109.027 187.55 109.061C187.75 109.094 188.008 109.111 188.325 109.111C188.908 109.111 189.317 108.936 189.55 108.586C189.783 108.236 189.9 107.727 189.9 107.061V94.4858H193.625V107.161C193.625 108.894 193.2 110.177 192.35 111.011C191.5 111.844 190.275 112.261 188.675 112.261ZM193.975 90.6858C193.975 91.3691 193.75 91.9108 193.3 92.3108C192.867 92.6941 192.35 92.8858 191.75 92.8858C191.15 92.8858 190.625 92.6941 190.175 92.3108C189.742 91.9108 189.525 91.3691 189.525 90.6858C189.525 90.0024 189.742 89.4691 190.175 89.0858C190.625 88.6858 191.15 88.4858 191.75 88.4858C192.35 88.4858 192.867 88.6858 193.3 89.0858C193.75 89.4691 193.975 90.0024 193.975 90.6858ZM196.502 101.161C196.502 99.9941 196.677 98.9774 197.027 98.1108C197.393 97.2274 197.868 96.4941 198.452 95.9108C199.035 95.3274 199.702 94.8858 200.452 94.5858C201.218 94.2858 202.002 94.1358 202.802 94.1358C204.668 94.1358 206.143 94.7108 207.227 95.8608C208.31 96.9941 208.852 98.6691 208.852 100.886C208.852 101.102 208.843 101.344 208.827 101.611C208.821 101.702 208.814 101.79 208.808 101.874C208.798 102.021 208.787 102.159 208.777 102.286H200.327C200.41 103.052 200.768 103.661 201.402 104.111C202.035 104.561 202.885 104.786 203.952 104.786C204.635 104.786 205.302 104.727 205.952 104.611C206.618 104.477 207.16 104.319 207.577 104.136L208.077 107.161C207.877 107.261 207.61 107.361 207.277 107.461C206.943 107.561 206.568 107.644 206.152 107.711C205.752 107.794 205.318 107.861 204.852 107.911C204.385 107.961 203.918 107.986 203.452 107.986C202.268 107.986 201.235 107.811 200.352 107.461C199.485 107.111 198.76 106.636 198.177 106.036C197.61 105.419 197.185 104.694 196.902 103.861C196.635 103.027 196.502 102.127 196.502 101.161ZM205.252 99.7358C205.235 99.4191 205.177 99.1108 205.077 98.8108C204.993 98.5108 204.852 98.2441 204.652 98.0108C204.468 97.7774 204.227 97.5858 203.927 97.4358C203.643 97.2858 203.285 97.2108 202.852 97.2108C202.435 97.2108 202.077 97.2858 201.777 97.4358C201.477 97.5691 201.227 97.7524 201.027 97.9858C200.827 98.2191 200.668 98.4941 200.552 98.8108C200.452 99.1108 200.377 99.4191 200.327 99.7358H205.252ZM211.101 101.061C211.101 100.111 211.251 99.2191 211.551 98.3858C211.868 97.5358 212.318 96.8024 212.901 96.1858C213.485 95.5524 214.193 95.0524 215.026 94.6858C215.86 94.3191 216.81 94.1358 217.876 94.1358C218.576 94.1358 219.218 94.2024 219.801 94.3358C220.385 94.4524 220.951 94.6274 221.501 94.8608L220.726 97.8358C220.376 97.7024 219.993 97.5858 219.576 97.4858C219.16 97.3858 218.693 97.3358 218.176 97.3358C217.076 97.3358 216.251 97.6774 215.701 98.3608C215.168 99.0441 214.901 99.9441 214.901 101.061C214.901 102.244 215.151 103.161 215.651 103.811C216.168 104.461 217.06 104.786 218.326 104.786C218.776 104.786 219.26 104.744 219.776 104.661C220.293 104.577 220.768 104.444 221.201 104.261L221.726 107.311C221.293 107.494 220.751 107.652 220.101 107.786C219.451 107.919 218.735 107.986 217.951 107.986C216.751 107.986 215.718 107.811 214.851 107.461C213.985 107.094 213.268 106.602 212.701 105.986C212.151 105.369 211.743 104.644 211.476 103.811C211.226 102.961 211.101 102.044 211.101 101.061ZM224.101 91.2108L227.826 90.6108V94.4858H232.301V97.5858H227.826V102.211C227.826 102.994 227.96 103.619 228.226 104.086C228.51 104.552 229.068 104.786 229.901 104.786C230.301 104.786 230.71 104.752 231.126 104.686C231.56 104.602 231.951 104.494 232.301 104.361L232.826 107.261C232.376 107.444 231.876 107.602 231.326 107.736C230.776 107.869 230.101 107.936 229.301 107.936C228.285 107.936 227.443 107.802 226.776 107.536C226.11 107.252 225.576 106.869 225.176 106.386C224.776 105.886 224.493 105.286 224.326 104.586C224.176 103.886 224.101 103.111 224.101 102.261V91.2108ZM4.3875 83.2443C5.8125 83.3443 7.2375 83.3943 8.6625 83.3943C12.5875 83.3943 15.5375 82.7068 17.5125 81.3318C19.5125 79.9568 20.5125 77.9068 20.5125 75.1818C20.5125 73.8318 20.2125 72.6193 19.6125 71.5443C19.0125 70.4693 17.8875 69.6193 16.2375 68.9943C18.2375 67.7943 19.2375 66.1568 19.2375 64.0818C19.2375 62.7068 18.95 61.5568 18.375 60.6318C17.825 59.6818 17.05 58.9193 16.05 58.3443C15.05 57.7693 13.85 57.3693 12.45 57.1443C11.075 56.8943 9.5625 56.7693 7.9125 56.7693C6.6875 56.7693 5.3625 56.8318 3.9375 56.9568C2.5125 57.0568 1.2 57.2193 0 57.4443V82.6443C1.525 82.9693 2.9875 83.1693 4.3875 83.2443ZM5.7 78.4443V71.7318H9.375C11.05 71.7318 12.3375 71.9943 13.2375 72.5193C14.1375 73.0193 14.5875 73.8693 14.5875 75.0693C14.5875 76.4193 14.05 77.3443 12.975 77.8443C11.9 78.3443 10.4875 78.5943 8.7375 78.5943C8.1375 78.5943 7.5875 78.5818 7.0875 78.5568C6.5875 78.5318 6.125 78.4943 5.7 78.4443ZM8.55 67.2693H5.7V61.6068C6.15 61.5568 6.6625 61.5318 7.2375 61.5318C7.8125 61.5068 8.35 61.4943 8.85 61.4943C10.4 61.4943 11.575 61.7068 12.375 62.1318C13.175 62.5568 13.575 63.2943 13.575 64.3443C13.575 65.3693 13.1875 66.1193 12.4125 66.5943C11.6375 67.0443 10.35 67.2693 8.55 67.2693ZM30.5578 73.4943C30.2578 72.4693 30.1078 71.3193 30.1078 70.0443C30.1078 68.7943 30.2578 67.6568 30.5578 66.6318C30.8828 65.5818 31.3328 64.6943 31.9078 63.9693C32.5078 63.2193 33.2328 62.6443 34.0828 62.2443C34.9328 61.8193 35.9078 61.6068 37.0078 61.6068C38.0828 61.6068 39.0453 61.8068 39.8953 62.2068C40.7703 62.6068 41.4953 63.1818 42.0703 63.9318C42.6703 64.6568 43.1203 65.5443 43.4203 66.5943C43.7453 67.6193 43.9078 68.7693 43.9078 70.0443C43.9078 71.3193 43.7453 72.4693 43.4203 73.4943C43.1203 74.5193 42.6703 75.4068 42.0703 76.1568C41.4953 76.8818 40.7703 77.4443 39.8953 77.8443C39.0453 78.2443 38.0828 78.4443 37.0078 78.4443C35.9078 78.4443 34.9328 78.2443 34.0828 77.8443C33.2328 77.4443 32.5078 76.8818 31.9078 76.1568C31.3328 75.4068 30.8828 74.5193 30.5578 73.4943ZM48.9328 75.9318C49.6078 74.2318 49.9453 72.2693 49.9453 70.0443C49.9453 67.8193 49.6078 65.8693 48.9328 64.1943C48.2578 62.4943 47.3328 61.0693 46.1578 59.9193C44.9828 58.7693 43.6078 57.9068 42.0328 57.3318C40.4578 56.7568 38.7828 56.4693 37.0078 56.4693C35.2828 56.4693 33.6328 56.7568 32.0578 57.3318C30.5078 57.9068 29.1328 58.7693 27.9328 59.9193C26.7578 61.0693 25.8203 62.4943 25.1203 64.1943C24.4203 65.8693 24.0703 67.8193 24.0703 70.0443C24.0703 72.2693 24.4078 74.2318 25.0828 75.9318C25.7578 77.6068 26.6828 79.0193 27.8578 80.1693C29.0328 81.2943 30.4078 82.1443 31.9828 82.7193C33.5578 83.2943 35.2328 83.5818 37.0078 83.5818C38.8328 83.5818 40.5328 83.2943 42.1078 82.7193C43.7078 82.1443 45.0828 81.2943 46.2328 80.1693C47.3828 79.0193 48.2828 77.6068 48.9328 75.9318ZM71.5468 58.8318C69.4718 57.4568 66.4968 56.7693 62.6218 56.7693C61.5468 56.7693 60.2968 56.8193 58.8718 56.9193C57.4468 57.0193 56.0968 57.1943 54.8218 57.4443V83.0568H60.6718V74.3568H62.5093C66.4093 74.3568 69.4093 73.6693 71.5093 72.2943C73.6093 70.8943 74.6593 68.6318 74.6593 65.5068C74.6593 62.4068 73.6218 60.1818 71.5468 58.8318ZM61.7218 61.7943C62.1468 61.7693 62.5718 61.7568 62.9968 61.7568C63.8468 61.7568 64.6218 61.8193 65.3218 61.9443C66.0218 62.0443 66.6093 62.2443 67.0843 62.5443C67.5843 62.8193 67.9593 63.1943 68.2093 63.6693C68.4843 64.1443 68.6218 64.7443 68.6218 65.4693C68.6218 66.9693 68.1093 67.9943 67.0843 68.5443C66.0593 69.0943 64.5343 69.3693 62.5093 69.3693H60.6718V61.8693C60.9718 61.8443 61.3218 61.8193 61.7218 61.7943ZM84.3176 73.4943C84.0176 72.4693 83.8676 71.3193 83.8676 70.0443C83.8676 68.7943 84.0176 67.6568 84.3176 66.6318C84.6426 65.5818 85.0926 64.6943 85.6676 63.9693C86.2676 63.2193 86.9926 62.6443 87.8426 62.2443C88.6926 61.8193 89.6676 61.6068 90.7676 61.6068C91.8426 61.6068 92.8051 61.8068 93.6551 62.2068C94.5301 62.6068 95.2551 63.1818 95.8301 63.9318C96.4301 64.6568 96.8801 65.5443 97.1801 66.5943C97.5051 67.6193 97.6676 68.7693 97.6676 70.0443C97.6676 71.3193 97.5051 72.4693 97.1801 73.4943C96.8801 74.5193 96.4301 75.4068 95.8301 76.1568C95.2551 76.8818 94.5301 77.4443 93.6551 77.8443C92.8051 78.2443 91.8426 78.4443 90.7676 78.4443C89.6676 78.4443 88.6926 78.2443 87.8426 77.8443C86.9926 77.4443 86.2676 76.8818 85.6676 76.1568C85.0926 75.4068 84.6426 74.5193 84.3176 73.4943ZM102.693 75.9318C103.368 74.2318 103.705 72.2693 103.705 70.0443C103.705 67.8193 103.368 65.8693 102.693 64.1943C102.018 62.4943 101.093 61.0693 99.9176 59.9193C98.7426 58.7693 97.3676 57.9068 95.7926 57.3318C94.2176 56.7568 92.5426 56.4693 90.7676 56.4693C89.0426 56.4693 87.3926 56.7568 85.8176 57.3318C84.2676 57.9068 82.8926 58.7693 81.6926 59.9193C80.5176 61.0693 79.5801 62.4943 78.8801 64.1943C78.1801 65.8693 77.8301 67.8193 77.8301 70.0443C77.8301 72.2693 78.1676 74.2318 78.8426 75.9318C79.5176 77.6068 80.4426 79.0193 81.6176 80.1693C82.7926 81.2943 84.1676 82.1443 85.7426 82.7193C87.3176 83.2943 88.9926 83.5818 90.7676 83.5818C92.5926 83.5818 94.2926 83.2943 95.8676 82.7193C97.4676 82.1443 98.8426 81.2943 99.9926 80.1693C101.143 79.0193 102.043 77.6068 102.693 75.9318ZM114.169 66.2943V62.0193H125.832V57.0693H108.582V82.4568C109.932 82.7818 111.269 83.0068 112.594 83.1318C113.944 83.2568 115.144 83.3193 116.194 83.3193C120.069 83.3193 123.044 82.6193 125.119 81.2193C127.219 79.7943 128.269 77.6443 128.269 74.7693C128.269 73.2193 127.994 71.9068 127.444 70.8318C126.894 69.7568 126.094 68.8818 125.044 68.2068C124.019 67.5318 122.744 67.0443 121.219 66.7443C119.719 66.4443 118.007 66.2943 116.082 66.2943H114.169ZM118.707 78.1818C118.007 78.2818 117.269 78.3318 116.494 78.3318H115.144C114.769 78.3068 114.444 78.2818 114.169 78.2568V71.1318H115.894C116.894 71.1318 117.794 71.1818 118.594 71.2818C119.394 71.3818 120.069 71.5693 120.619 71.8443C121.169 72.1193 121.594 72.4943 121.894 72.9693C122.194 73.4443 122.344 74.0568 122.344 74.8068C122.344 75.5318 122.182 76.1193 121.857 76.5693C121.532 77.0193 121.094 77.3818 120.544 77.6568C120.019 77.9068 119.407 78.0818 118.707 78.1818ZM149.771 81.1443C151.921 79.6443 152.996 77.4443 152.996 74.5443C152.996 71.5193 151.971 69.2818 149.921 67.8318C147.871 66.3818 144.734 65.6568 140.509 65.6568H139.684C139.434 65.6568 139.146 65.6693 138.821 65.6943V57.0693H132.971V82.4568C134.321 82.7818 135.684 83.0193 137.059 83.1693C138.459 83.3193 139.696 83.3943 140.771 83.3943C144.621 83.3943 147.621 82.6443 149.771 81.1443ZM139.459 70.6068H139.984C141.059 70.6068 142.021 70.6693 142.871 70.7943C143.746 70.9193 144.484 71.1318 145.084 71.4318C145.709 71.7318 146.184 72.1318 146.509 72.6318C146.834 73.1318 146.996 73.7693 146.996 74.5443C146.996 75.2943 146.834 75.9193 146.509 76.4193C146.184 76.9193 145.746 77.3193 145.196 77.6193C144.646 77.9193 144.009 78.1318 143.284 78.2568C142.559 78.3818 141.809 78.4443 141.034 78.4443H139.759C139.409 78.4443 139.096 78.4318 138.821 78.4068V70.6443C139.021 70.6193 139.234 70.6068 139.459 70.6068ZM157.69 57.0693V83.0568H176.103V78.1443H163.54V71.8818H173.928V67.0818H163.54V61.9818H175.24V57.0693H157.69ZM160.165 53.3568C160.74 53.8568 161.415 54.1068 162.19 54.1068C162.965 54.1068 163.64 53.8568 164.215 53.3568C164.79 52.8318 165.078 52.1318 165.078 51.2568C165.078 50.3818 164.79 49.6943 164.215 49.1943C163.64 48.6693 162.965 48.4068 162.19 48.4068C161.415 48.4068 160.74 48.6693 160.165 49.1943C159.59 49.6943 159.303 50.3818 159.303 51.2568C159.303 52.1318 159.59 52.8318 160.165 53.3568ZM168.528 53.3568C169.103 53.8568 169.778 54.1068 170.553 54.1068C171.328 54.1068 172.003 53.8568 172.578 53.3568C173.153 52.8318 173.44 52.1318 173.44 51.2568C173.44 50.3818 173.153 49.6943 172.578 49.1943C172.003 48.6693 171.328 48.4068 170.553 48.4068C169.778 48.4068 169.103 48.6693 168.528 49.1943C167.953 49.6943 167.665 50.3818 167.665 51.2568C167.665 52.1318 167.953 52.8318 168.528 53.3568ZM184.82 83.2443C186.245 83.3443 187.67 83.3943 189.095 83.3943C193.02 83.3943 195.97 82.7068 197.945 81.3318C199.945 79.9568 200.945 77.9068 200.945 75.1818C200.945 73.8318 200.645 72.6193 200.045 71.5443C199.445 70.4693 198.32 69.6193 196.67 68.9943C198.67 67.7943 199.67 66.1568 199.67 64.0818C199.67 62.7068 199.382 61.5568 198.807 60.6318C198.257 59.6818 197.482 58.9193 196.482 58.3443C195.482 57.7693 194.282 57.3693 192.882 57.1443C191.507 56.8943 189.995 56.7693 188.345 56.7693C187.12 56.7693 185.795 56.8318 184.37 56.9568C182.945 57.0568 181.632 57.2193 180.432 57.4443V82.6443C181.957 82.9693 183.42 83.1693 184.82 83.2443ZM186.132 78.4443V71.7318H189.807C191.482 71.7318 192.77 71.9943 193.67 72.5193C194.57 73.0193 195.02 73.8693 195.02 75.0693C195.02 76.4193 194.482 77.3443 193.407 77.8443C192.332 78.3443 190.92 78.5943 189.17 78.5943C188.57 78.5943 188.02 78.5818 187.52 78.5568C187.02 78.5318 186.557 78.4943 186.132 78.4443ZM188.982 67.2693H186.132V61.6068C186.582 61.5568 187.095 61.5318 187.67 61.5318C188.245 61.5068 188.782 61.4943 189.282 61.4943C190.832 61.4943 192.007 61.7068 192.807 62.1318C193.607 62.5568 194.007 63.2943 194.007 64.3443C194.007 65.3693 193.62 66.1193 192.845 66.5943C192.07 67.0443 190.782 67.2693 188.982 67.2693ZM221.724 80.2818C222.074 81.2318 222.386 82.1568 222.661 83.0568H228.924C227.949 80.2568 227.024 77.6693 226.149 75.2943C225.274 72.9193 224.411 70.6818 223.561 68.5818C222.736 66.4818 221.911 64.4943 221.086 62.6193C220.261 60.7193 219.424 58.8693 218.574 57.0693H212.986C212.111 58.8693 211.261 60.7193 210.436 62.6193C209.636 64.4943 208.811 66.4818 207.961 68.5818C207.136 70.6818 206.286 72.9193 205.411 75.2943C204.536 77.6693 203.611 80.2568 202.636 83.0568H208.711C208.986 82.1568 209.286 81.2318 209.611 80.2818C209.961 79.3318 210.299 78.3818 210.624 77.4318H220.749L221.724 80.2818ZM215.086 64.4943C215.336 63.8443 215.524 63.3318 215.649 62.9568C215.799 63.3318 215.999 63.8443 216.249 64.4943C216.499 65.1443 216.786 65.8943 217.111 66.7443C217.461 67.5943 217.824 68.5318 218.199 69.5568C218.574 70.5818 218.961 71.6568 219.361 72.7818H211.974C212.374 71.6568 212.761 70.5818 213.136 69.5568C213.536 68.5318 213.899 67.5943 214.224 66.7443C214.549 65.8943 214.836 65.1443 215.086 64.4943Z" fill="black"/>
</svg>
